<?xml version="1.0" encoding="UTF-8" standalone="no"?>
<!DOCTYPE svg PUBLIC "-//W3C//DTD SVG 1.1//EN" "http://www.w3.org/Graphics/SVG/1.1/DTD/svg11.dtd">
<svg width="100%" height="100%" viewBox="0 0 1080 1080" version="1.1" xmlns="http://www.w3.org/2000/svg" xmlns:xlink="http://www.w3.org/1999/xlink" xml:space="preserve" xmlns:serif="http://www.serif.com/" style="fill-rule:evenodd;clip-rule:evenodd;stroke-linejoin:round;stroke-miterlimit:2;">
    <g transform="matrix(1.00215,0,0,1.00215,-2.04283,-1.86908)">
        <circle cx="540.881" cy="540.708" r="538.843" style="fill:rgb(133,174,231);"/>
    </g>
    <g transform="matrix(0.927914,0,0,0.927914,38.1085,38.2694)">
        <circle cx="540.881" cy="540.708" r="538.843" style="fill:rgb(138,223,239);"/>
    </g>
    <g transform="matrix(1,0,0,1,-100.886,111.866)">
        <path d="M507.566,585.434L507.566,425.714L374.246,425.714L374.246,451.234L481.166,451.234C481.459,467.954 479.259,483.354 474.566,497.434C469.872,511.514 462.832,523.688 453.446,533.954C444.059,544.221 432.546,552.214 418.906,557.934C405.266,563.654 389.792,566.514 372.486,566.514C351.659,566.514 333.766,562.554 318.806,554.634C303.846,546.714 291.599,536.228 282.066,523.174C272.532,510.121 265.492,495.308 260.946,478.734C256.399,462.161 254.126,445.368 254.126,428.354C254.126,411.048 256.399,394.181 260.946,377.754C265.492,361.328 272.532,346.588 282.066,333.534C291.599,320.481 303.846,309.994 318.806,302.074C333.766,294.154 351.659,290.194 372.486,290.194C387.446,290.194 400.939,292.614 412.966,297.454C424.992,302.294 435.332,308.528 443.986,316.154C452.639,323.781 459.532,332.214 464.666,341.454C469.799,350.694 472.806,359.861 473.686,368.954L503.606,368.954C500.672,351.648 495.246,336.541 487.326,323.634C479.406,310.728 469.726,299.874 458.286,291.074C446.846,282.274 433.792,275.674 419.126,271.274C404.459,266.874 388.912,264.674 372.486,264.674C347.846,264.674 326.212,269.148 307.586,278.094C288.959,287.041 273.486,299.068 261.166,314.174C248.846,329.281 239.606,346.661 233.446,366.314C227.286,385.968 224.206,406.648 224.206,428.354C224.206,450.061 227.286,470.741 233.446,490.394C239.606,510.048 248.846,527.354 261.166,542.314C273.486,557.274 288.959,569.228 307.586,578.174C326.212,587.121 347.846,591.594 372.486,591.594C383.926,591.594 394.999,590.421 405.706,588.074C416.412,585.728 426.459,581.988 435.846,576.854C445.232,571.721 453.812,565.121 461.586,557.054C469.359,548.988 475.886,539.381 481.166,528.234L482.046,528.234L486.006,585.434L507.566,585.434Z" style="fill:rgb(24,40,72);fill-rule:nonzero;"/>
        <path d="M531.766,271.274L531.766,296.794L640.886,296.794L640.886,585.434L670.806,585.434L670.806,296.794L780.366,296.794L780.366,271.274L531.766,271.274Z" style="fill:rgb(24,40,72);fill-rule:nonzero;"/>
        <path d="M823.926,482.034L794.006,482.034C793.126,501.394 795.692,517.968 801.706,531.754C807.719,545.541 816.299,556.834 827.446,565.634C838.592,574.434 852.086,580.961 867.926,585.214C883.766,589.468 900.926,591.594 919.406,591.594C937.886,591.594 953.726,589.908 966.926,586.534C980.126,583.161 991.199,578.761 1000.15,573.334C1009.09,567.908 1016.13,561.821 1021.27,555.074C1026.4,548.328 1030.36,541.654 1033.15,535.054C1035.93,528.454 1037.69,522.221 1038.43,516.354C1039.16,510.488 1039.53,505.794 1039.53,502.274C1039.53,489.368 1037.4,478.368 1033.15,469.274C1028.89,460.181 1023.03,452.481 1015.55,446.174C1008.07,439.868 999.412,434.588 989.586,430.334C979.759,426.081 969.272,422.488 958.126,419.554L881.566,400.634C875.112,399.168 869.026,397.261 863.306,394.914C857.586,392.568 852.526,389.488 848.126,385.674C843.726,381.861 840.279,377.241 837.786,371.814C835.292,366.388 834.046,360.008 834.046,352.674C834.046,340.941 836.246,331.114 840.646,323.194C845.046,315.274 850.839,308.894 858.026,304.054C865.212,299.214 873.572,295.694 883.106,293.494C892.639,291.294 902.539,290.194 912.806,290.194C923.952,290.194 934.586,291.734 944.706,294.814C954.826,297.894 963.772,302.441 971.546,308.454C979.319,314.468 985.626,321.948 990.466,330.894C995.306,339.841 998.019,350.328 998.606,362.354L1028.53,362.354C1028.53,346.221 1025.37,332.068 1019.07,319.894C1012.76,307.721 1004.33,297.528 993.766,289.314C983.206,281.101 970.886,274.941 956.806,270.834C942.726,266.728 927.912,264.674 912.366,264.674C890.366,264.674 872.326,267.828 858.246,274.134C844.166,280.441 833.092,288.141 825.026,297.234C816.959,306.328 811.459,316.008 808.526,326.274C805.592,336.541 804.126,345.488 804.126,353.114C804.126,365.434 806.106,375.848 810.066,384.354C814.026,392.861 819.232,400.048 825.686,405.914C832.139,411.781 839.692,416.474 848.346,419.994C856.999,423.514 865.872,426.448 874.966,428.794L944.926,445.954C952.259,447.714 959.739,449.988 967.366,452.774C974.992,455.561 981.959,459.154 988.266,463.554C994.572,467.954 999.706,473.381 1003.67,479.834C1007.63,486.288 1009.61,493.914 1009.61,502.714C1009.61,514.154 1006.82,523.908 1001.25,531.974C995.672,540.041 988.706,546.641 980.346,551.774C971.986,556.908 962.966,560.648 953.286,562.994C943.606,565.341 934.659,566.514 926.446,566.514C912.072,566.514 898.579,565.121 885.966,562.334C873.352,559.548 862.426,554.928 853.186,548.474C843.946,542.021 836.686,533.368 831.406,522.514C826.126,511.661 823.632,498.168 823.926,482.034Z" style="fill:rgb(24,40,72);fill-rule:nonzero;"/>
    </g>
</svg>
